<svg xmlns="http://www.w3.org/2000/svg" version="1.1" width="121" height="114">

<path d="M0 0 C39.93 0 79.86 0 121 0 C121 37.62 121 75.24 121 114 C81.07 114 41.14 114 0 114 C0 76.38 0 38.76 0 0 Z " fill="#FEFEFE" transform="translate(0,0)"/>

<path d="M0 0 C6.27 0 12.54 0 19 0 C21.53029304 5.72765642 24.05704271 11.45685787 26.58056641 17.1875 C27.43897608 19.13551681 28.29834101 21.08311298 29.15869141 23.03027344 C30.39739221 25.83417652 31.63261442 28.63958995 32.8671875 31.4453125 C33.25059296 32.31116974 33.63399841 33.17702698 34.02902222 34.06912231 C34.38924469 34.88951996 34.74946716 35.7099176 35.12060547 36.55517578 C35.43593231 37.27021271 35.75125916 37.98524963 36.07614136 38.72195435 C37.17594326 41.43383994 38.07458724 44.22376173 39 47 C30.585 47.495 30.585 47.495 22 48 C19.31067999 54.06816054 16.62313975 60.13710489 13.93725586 66.20678711 C13.02303326 68.27210866 12.10832212 70.33721404 11.19311523 72.40209961 C9.87876366 75.36776119 8.56616295 78.33419224 7.25390625 81.30078125 C6.84346573 82.2258699 6.43302521 83.15095856 6.01014709 84.1040802 C5.62982834 84.96474594 5.24950958 85.82541168 4.85766602 86.7121582 C4.52235367 87.46938675 4.18704132 88.2266153 3.84156799 89.00679016 C3.15154024 90.64108486 2.5609864 92.31704079 2 94 C-4.27 94 -10.54 94 -17 94 C-17.70125 92.33195312 -18.4025 90.66390625 -19.125 88.9453125 C-20.08295446 86.67171533 -21.04131592 84.39828962 -22 82.125 C-22.49604736 80.94800537 -22.99209473 79.77101074 -23.50317383 78.55834961 C-26.79674083 70.77013215 -30.16211981 63.02092889 -33.71289062 55.34619141 C-35.06133211 52.38346876 -36 50.29620485 -36 47 C-28.08 46.505 -28.08 46.505 -20 46 C-17.47209055 40.25298561 -14.9452647 34.50549649 -12.41943359 28.75756836 C-11.56035513 26.80301092 -10.70098279 24.8485826 -9.84130859 22.89428711 C-8.60436617 20.08220934 -7.36848775 17.26966603 -6.1328125 14.45703125 C-5.74940704 13.58601273 -5.36600159 12.7149942 -4.97097778 11.81758118 C-4.43064407 10.58687141 -4.43064407 10.58687141 -3.87939453 9.33129883 C-3.56406769 8.61404129 -3.24874084 7.89678375 -2.92385864 7.15779114 C-1.90944822 4.78850463 -0.95719036 2.3929759 0 0 Z " fill="#56595D" transform="translate(59,11)"/>

<path d="M0 0 C14.21031873 -1.36702591 14.21031873 -1.36702591 18.1171875 1.6171875 C19.62213728 4.00640155 20.79467584 6.44690427 22 9 C23.33168013 11.02910154 24.70821434 13.02937995 26.125 15 C26.76695313 15.928125 27.40890625 16.85625 28.0703125 17.8125 C30.09188622 20.10416252 31.01565766 20.68167015 34 21 C36.9278713 16.74661677 38.05050547 12.63466264 39.1875 7.6875 C39.785625 5.150625 40.38375 2.61375 41 0 C46.28 0 51.56 0 57 0 C56.12630869 4.36845654 55.00909756 7.59296178 53.234375 11.62890625 C52.95909973 12.25925278 52.68382446 12.8895993 52.40020752 13.53904724 C51.52144573 15.54893659 50.63601333 17.55579823 49.75 19.5625 C48.59720117 22.18803317 47.44701415 24.81470712 46.296875 27.44140625 C46.01734985 28.07841461 45.73782471 28.71542297 45.4498291 29.37173462 C42.89056885 35.21672644 40.43431801 41.10181219 38 47 C31.73 47 25.46 47 19 47 C18.29875 45.33195312 17.5975 43.66390625 16.875 41.9453125 C15.91704554 39.67171533 14.95868408 37.39828962 14 35.125 C13.25592896 33.35950806 13.25592896 33.35950806 12.49682617 31.55834961 C9.20325917 23.77013215 5.83788019 16.02092889 2.28710938 8.34619141 C0.93866789 5.38346876 0 3.29620485 0 0 Z " fill="#55585D" transform="translate(23,58)"/>

<path d="M0 0 C3.51171032 0.0820767 4.78474264 0.7901876 7.31640625 3.2578125 C18 16.89565217 18 16.89565217 18 21 C12.72 21 7.44 21 2 21 C1.731875 23.000625 1.46375 25.00125 1.1875 27.0625 C0.38680842 32.20260402 -0.39261089 36.48721116 -3 41 C-5.1875 42.4375 -5.1875 42.4375 -7 43 C-11.40477815 39.87604386 -13.95126692 36.50435829 -16.75 32 C-17.14832031 31.38382813 -17.54664063 30.76765625 -17.95703125 30.1328125 C-19.92544263 27.02338978 -21.09747955 24.61008179 -22 21 C-16.72 21 -11.44 21 -6 21 C-5.896875 19.72125 -5.79375 18.4425 -5.6875 17.125 C-5.04536552 11.33661632 -4.23937746 4.23937746 0 0 Z " fill="#F9F9FA" transform="translate(62,37)"/>

</svg>
